<mxfile host="Electron" agent="Mozilla/5.0 (Windows NT 10.0; Win64; x64) AppleWebKit/537.36 (KHTML, like Gecko) draw.io/28.0.6 Chrome/138.0.7204.100 Electron/37.2.3 Safari/537.36" version="28.0.6">
  <diagram name="Página-1" id="jTiSDYUjAUh3-ItjgqhO">
    <mxGraphModel dx="1188" dy="701" grid="0" gridSize="10" guides="1" tooltips="1" connect="1" arrows="1" fold="1" page="1" pageScale="1" pageWidth="827" pageHeight="1169" math="0" shadow="0">
      <root>
        <mxCell id="0" />
        <mxCell id="1" parent="0" />
        <mxCell id="TegFR1dzLA7DEJuS2ZcV-1" value="Petición aulas virtual en Moodle y registro de tiempos de navegación" style="shape=table;startSize=28;container=1;collapsible=0;childLayout=tableLayout;fixedRows=1;rowLines=0;fontStyle=0;strokeColor=default;fontSize=14;fontFamily=Times New Roman;" vertex="1" parent="1">
          <mxGeometry x="30" y="30" width="394.5443349753693" height="92.73419540229897" as="geometry" />
        </mxCell>
        <mxCell id="TegFR1dzLA7DEJuS2ZcV-2" value="" style="shape=tableRow;horizontal=0;startSize=0;swimlaneHead=0;swimlaneBody=0;top=0;left=0;bottom=0;right=0;collapsible=0;dropTarget=0;fillColor=none;points=[[0,0.5],[1,0.5]];portConstraint=eastwest;strokeColor=inherit;fontSize=16;fontFamily=Times New Roman;" vertex="1" parent="TegFR1dzLA7DEJuS2ZcV-1">
          <mxGeometry y="28" width="394.5443349753693" height="20" as="geometry" />
        </mxCell>
        <mxCell id="TegFR1dzLA7DEJuS2ZcV-3" value="&lt;font style=&quot;font-size: 14px;&quot;&gt;Detalle&lt;/font&gt;&lt;div&gt;&lt;br&gt;&lt;/div&gt;" style="shape=partialRectangle;html=1;whiteSpace=wrap;connectable=0;fillColor=none;top=0;left=0;bottom=0;right=0;overflow=hidden;pointerEvents=1;strokeColor=inherit;fontSize=16;fontFamily=Times New Roman;" vertex="1" parent="TegFR1dzLA7DEJuS2ZcV-2">
          <mxGeometry width="76" height="20" as="geometry">
            <mxRectangle width="76" height="20" as="alternateBounds" />
          </mxGeometry>
        </mxCell>
        <mxCell id="TegFR1dzLA7DEJuS2ZcV-4" value="&lt;font style=&quot;font-size: 14px;&quot;&gt;Ciclo 01-2025&lt;/font&gt;" style="shape=partialRectangle;html=1;whiteSpace=wrap;connectable=0;fillColor=none;top=0;left=0;bottom=0;right=0;align=left;spacingLeft=6;overflow=hidden;strokeColor=inherit;fontSize=16;fontFamily=Times New Roman;" vertex="1" parent="TegFR1dzLA7DEJuS2ZcV-2">
          <mxGeometry x="76" width="319" height="20" as="geometry">
            <mxRectangle width="319" height="20" as="alternateBounds" />
          </mxGeometry>
        </mxCell>
        <mxCell id="TegFR1dzLA7DEJuS2ZcV-5" value="" style="shape=tableRow;horizontal=0;startSize=0;swimlaneHead=0;swimlaneBody=0;top=0;left=0;bottom=0;right=0;collapsible=0;dropTarget=0;fillColor=none;points=[[0,0.5],[1,0.5]];portConstraint=eastwest;strokeColor=inherit;fontSize=16;fontFamily=Times New Roman;" vertex="1" parent="TegFR1dzLA7DEJuS2ZcV-1">
          <mxGeometry y="48" width="394.5443349753693" height="22" as="geometry" />
        </mxCell>
        <mxCell id="TegFR1dzLA7DEJuS2ZcV-6" value="&lt;font style=&quot;font-size: 14px;&quot;&gt;Encargado&lt;/font&gt;" style="shape=partialRectangle;html=1;whiteSpace=wrap;connectable=0;fillColor=none;top=0;left=0;bottom=0;right=0;overflow=hidden;strokeColor=inherit;fontSize=16;fontFamily=Times New Roman;" vertex="1" parent="TegFR1dzLA7DEJuS2ZcV-5">
          <mxGeometry width="76" height="22" as="geometry">
            <mxRectangle width="76" height="22" as="alternateBounds" />
          </mxGeometry>
        </mxCell>
        <mxCell id="TegFR1dzLA7DEJuS2ZcV-7" value="&lt;span style=&quot;font-size: 14px;&quot;&gt;Juan José y René Cruz&lt;/span&gt;" style="shape=partialRectangle;html=1;whiteSpace=wrap;connectable=0;fillColor=none;top=0;left=0;bottom=0;right=0;align=left;spacingLeft=6;overflow=hidden;strokeColor=inherit;fontSize=16;fontFamily=Times New Roman;" vertex="1" parent="TegFR1dzLA7DEJuS2ZcV-5">
          <mxGeometry x="76" width="319" height="22" as="geometry">
            <mxRectangle width="319" height="22" as="alternateBounds" />
          </mxGeometry>
        </mxCell>
        <mxCell id="TegFR1dzLA7DEJuS2ZcV-8" value="" style="shape=tableRow;horizontal=0;startSize=0;swimlaneHead=0;swimlaneBody=0;top=0;left=0;bottom=0;right=0;collapsible=0;dropTarget=0;fillColor=none;points=[[0,0.5],[1,0.5]];portConstraint=eastwest;strokeColor=inherit;fontSize=16;fontFamily=Times New Roman;" vertex="1" parent="TegFR1dzLA7DEJuS2ZcV-1">
          <mxGeometry y="70" width="394.5443349753693" height="20" as="geometry" />
        </mxCell>
        <mxCell id="TegFR1dzLA7DEJuS2ZcV-9" value="" style="shape=partialRectangle;html=1;whiteSpace=wrap;connectable=0;fillColor=none;top=0;left=0;bottom=0;right=0;overflow=hidden;strokeColor=inherit;fontSize=16;fontFamily=Times New Roman;" vertex="1" parent="TegFR1dzLA7DEJuS2ZcV-8">
          <mxGeometry width="76" height="20" as="geometry">
            <mxRectangle width="76" height="20" as="alternateBounds" />
          </mxGeometry>
        </mxCell>
        <mxCell id="TegFR1dzLA7DEJuS2ZcV-10" value="" style="shape=partialRectangle;html=1;whiteSpace=wrap;connectable=0;fillColor=none;top=0;left=0;bottom=0;right=0;align=left;spacingLeft=6;overflow=hidden;strokeColor=inherit;fontSize=16;fontFamily=Times New Roman;" vertex="1" parent="TegFR1dzLA7DEJuS2ZcV-8">
          <mxGeometry x="76" width="319" height="20" as="geometry">
            <mxRectangle width="319" height="20" as="alternateBounds" />
          </mxGeometry>
        </mxCell>
        <mxCell id="TegFR1dzLA7DEJuS2ZcV-15" value="" style="edgeStyle=orthogonalEdgeStyle;rounded=0;orthogonalLoop=1;jettySize=auto;html=1;" edge="1" parent="1" source="TegFR1dzLA7DEJuS2ZcV-11" target="TegFR1dzLA7DEJuS2ZcV-14">
          <mxGeometry relative="1" as="geometry" />
        </mxCell>
        <mxCell id="TegFR1dzLA7DEJuS2ZcV-11" value="Obtención de los tiempso de navegación cualquier Moodle" style="rounded=0;whiteSpace=wrap;html=1;fillColor=#dae8fc;strokeColor=#6c8ebf;fontFamily=Times New Roman;fontSize=13;" vertex="1" parent="1">
          <mxGeometry x="347" y="176" width="130" height="60" as="geometry" />
        </mxCell>
        <mxCell id="TegFR1dzLA7DEJuS2ZcV-17" value="" style="edgeStyle=orthogonalEdgeStyle;rounded=0;orthogonalLoop=1;jettySize=auto;html=1;" edge="1" parent="1" source="TegFR1dzLA7DEJuS2ZcV-14" target="TegFR1dzLA7DEJuS2ZcV-16">
          <mxGeometry relative="1" as="geometry" />
        </mxCell>
        <mxCell id="TegFR1dzLA7DEJuS2ZcV-14" value="Ingresar a Moodle con credenciales Administrativas" style="whiteSpace=wrap;html=1;fontSize=13;fontFamily=Times New Roman;rounded=0;" vertex="1" parent="1">
          <mxGeometry x="348" y="270" width="128" height="61" as="geometry" />
        </mxCell>
        <mxCell id="TegFR1dzLA7DEJuS2ZcV-19" value="" style="edgeStyle=orthogonalEdgeStyle;rounded=0;orthogonalLoop=1;jettySize=auto;html=1;" edge="1" parent="1" source="TegFR1dzLA7DEJuS2ZcV-16" target="TegFR1dzLA7DEJuS2ZcV-18">
          <mxGeometry relative="1" as="geometry" />
        </mxCell>
        <mxCell id="TegFR1dzLA7DEJuS2ZcV-16" value="Identificar código de usuario y código de curso del que se desea obtener tiempo" style="whiteSpace=wrap;html=1;fontSize=13;fontFamily=Times New Roman;rounded=0;" vertex="1" parent="1">
          <mxGeometry x="344" y="365" width="136" height="66" as="geometry" />
        </mxCell>
        <mxCell id="TegFR1dzLA7DEJuS2ZcV-21" value="" style="edgeStyle=orthogonalEdgeStyle;rounded=0;orthogonalLoop=1;jettySize=auto;html=1;" edge="1" parent="1" source="TegFR1dzLA7DEJuS2ZcV-18" target="TegFR1dzLA7DEJuS2ZcV-20">
          <mxGeometry relative="1" as="geometry" />
        </mxCell>
        <mxCell id="TegFR1dzLA7DEJuS2ZcV-18" value="Ingresar a la base de daos del Moodle correspondiente" style="whiteSpace=wrap;html=1;fontSize=13;fontFamily=Times New Roman;rounded=0;" vertex="1" parent="1">
          <mxGeometry x="352" y="465" width="120" height="60" as="geometry" />
        </mxCell>
        <mxCell id="TegFR1dzLA7DEJuS2ZcV-23" value="" style="edgeStyle=orthogonalEdgeStyle;rounded=0;orthogonalLoop=1;jettySize=auto;html=1;" edge="1" parent="1" source="TegFR1dzLA7DEJuS2ZcV-20" target="TegFR1dzLA7DEJuS2ZcV-22">
          <mxGeometry relative="1" as="geometry" />
        </mxCell>
        <mxCell id="TegFR1dzLA7DEJuS2ZcV-20" value="Copiar y pegar consulta en el editor sql" style="whiteSpace=wrap;html=1;fontSize=13;fontFamily=Times New Roman;rounded=0;" vertex="1" parent="1">
          <mxGeometry x="352" y="559" width="120" height="60" as="geometry" />
        </mxCell>
        <mxCell id="TegFR1dzLA7DEJuS2ZcV-25" value="" style="edgeStyle=orthogonalEdgeStyle;rounded=0;orthogonalLoop=1;jettySize=auto;html=1;" edge="1" parent="1" source="TegFR1dzLA7DEJuS2ZcV-22" target="TegFR1dzLA7DEJuS2ZcV-24">
          <mxGeometry relative="1" as="geometry" />
        </mxCell>
        <mxCell id="TegFR1dzLA7DEJuS2ZcV-22" value="Editar los campos del parámetro de rango de fechas, código de usario y código de curso" style="whiteSpace=wrap;html=1;fontSize=13;fontFamily=Times New Roman;rounded=0;" vertex="1" parent="1">
          <mxGeometry x="332" y="653" width="160" height="66" as="geometry" />
        </mxCell>
        <mxCell id="TegFR1dzLA7DEJuS2ZcV-27" value="" style="edgeStyle=orthogonalEdgeStyle;rounded=0;orthogonalLoop=1;jettySize=auto;html=1;" edge="1" parent="1" source="TegFR1dzLA7DEJuS2ZcV-24" target="TegFR1dzLA7DEJuS2ZcV-26">
          <mxGeometry relative="1" as="geometry" />
        </mxCell>
        <mxCell id="TegFR1dzLA7DEJuS2ZcV-24" value="Ejecutar consulta SQL" style="whiteSpace=wrap;html=1;fontSize=13;fontFamily=Times New Roman;rounded=0;" vertex="1" parent="1">
          <mxGeometry x="349" y="750" width="126" height="40" as="geometry" />
        </mxCell>
        <mxCell id="TegFR1dzLA7DEJuS2ZcV-26" value="Trasladar datos obtenidos a reporte en Excel" style="whiteSpace=wrap;html=1;fontSize=13;fontFamily=Times New Roman;rounded=0;" vertex="1" parent="1">
          <mxGeometry x="352" y="821" width="120" height="60" as="geometry" />
        </mxCell>
      </root>
    </mxGraphModel>
  </diagram>
</mxfile>
